<svg width="1200" height="630" viewBox="0 0 1200 630" xmlns="http://www.w3.org/2000/svg">
  <defs>
    <linearGradient id="bg" x1="0%" y1="0%" x2="100%" y2="100%">
      <stop offset="0%" style="stop-color:#050505"/>
      <stop offset="100%" style="stop-color:#1A1A1A"/>
    </linearGradient>
  </defs>
  
  <!-- Background -->
  <rect width="1200" height="630" fill="url(#bg)"/>
  
  <!-- Circuit Pattern -->
  <g opacity="0.15">
    <path d="M 100 100 L 200 100 L 200 200 L 300 200" stroke="#58B573" stroke-width="2" fill="none"/>
    <path d="M 300 200 L 300 300 L 400 300" stroke="#58B573" stroke-width="2" fill="none"/>
    <path d="M 400 300 L 400 400 L 500 400" stroke="#58B573" stroke-width="2" fill="none"/>
    <circle cx="200" cy="100" r="4" fill="#FFEE00"/>
    <circle cx="300" cy="200" r="4" fill="#FFEE00"/>
    <circle cx="400" cy="300" r="4" fill="#FFEE00"/>
    <circle cx="500" cy="400" r="4" fill="#FFEE00"/>
  </g>
  
  <!-- Report ID -->
  <text x="100" y="80" font-family="Arial, sans-serif" font-size="16" font-weight="900" fill="#58B573" letter-spacing="4">
    REPORT S.1
  </text>
  
  <!-- Main Title -->
  <text x="100" y="200" font-family="Arial, sans-serif" font-size="64" font-weight="900" fill="#FFEE00" letter-spacing="-2">
    AI-NATIVE
  </text>
  
  <text x="100" y="280" font-family="Arial, sans-serif" font-size="56" font-weight="900" fill="#FFFFFF" letter-spacing="-1">
    SaaS Revolution
  </text>
  
  <!-- Description -->
  <text x="100" y="350" font-family="Arial, sans-serif" font-size="20" font-weight="400" fill="#FFFFFF" opacity="0.8">
    A transformação de software em inteligência operacional
  </text>
  
  <!-- Category Badge -->
  <rect x="100" y="400" width="120" height="30" fill="#58B573"/>
  <text x="160" y="420" font-family="Arial, sans-serif" font-size="12" font-weight="900" fill="#050505" text-anchor="middle">
    SAAS
  </text>
  
  <!-- Bottom Accent -->
  <rect x="100" y="480" width="150" height="3" fill="#FFEE00"/>
  
  <!-- Intelligence Hub Brand -->
  <text x="100" y="520" font-family="Arial, sans-serif" font-size="14" font-weight="400" fill="#FFFFFF" opacity="0.6">
    Intelligence Hub | Strategic Reports
  </text>
  
  <!-- AI Icon -->
  <g transform="translate(900, 200)">
    <circle cx="100" cy="100" r="80" fill="none" stroke="#58B573" stroke-width="2"/>
    <circle cx="100" cy="100" r="60" fill="none" stroke="#FFEE00" stroke-width="1"/>
    <path d="M 70 100 L 85 85 L 100 100 L 115 85 L 130 100" stroke="#FFFFFF" stroke-width="3" fill="none"/>
    <circle cx="85" cy="85" r="3" fill="#FFEE00"/>
    <circle cx="115" cy="85" r="3" fill="#FFEE00"/>
    <circle cx="100" cy="100" r="3" fill="#FFFFFF"/>
  </g>
  
  <!-- Corner Accent -->
  <path d="M 1100 50 L 1150 50 L 1150 100 Z" fill="#FFEE00" opacity="0.8"/>
</svg>
