<svg width="1200" height="630" viewBox="0 0 1200 630" xmlns="http://www.w3.org/2000/svg">
  <defs>
    <linearGradient id="bg" x1="0%" y1="0%" x2="100%" y2="100%">
      <stop offset="0%" style="stop-color:#050505"/>
      <stop offset="100%" style="stop-color:#1A1A1A"/>
    </linearGradient>
  </defs>
  
  <!-- Background -->
  <rect width="1200" height="630" fill="url(#bg)"/>
  
  <!-- Vertical Pattern -->
  <g opacity="0.15">
    <rect x="200" y="100" width="80" height="400" fill="none" stroke="#58B573" stroke-width="2"/>
    <rect x="350" y="150" width="80" height="350" fill="none" stroke="#58B573" stroke-width="2"/>
    <rect x="500" y="200" width="80" height="300" fill="none" stroke="#58B573" stroke-width="2"/>
    <line x1="240" y1="100" x2="240" y2="500" stroke="#FFEE00" stroke-width="1"/>
    <line x1="390" y1="150" x2="390" y2="500" stroke="#FFEE00" stroke-width="1"/>
    <line x1="540" y1="200" x2="540" y2="500" stroke="#FFEE00" stroke-width="1"/>
  </g>
  
  <!-- Report ID -->
  <text x="100" y="80" font-family="Arial, sans-serif" font-size="16" font-weight="900" fill="#58B573" letter-spacing="4">
    REPORT S.2
  </text>
  
  <!-- Main Title -->
  <text x="100" y="200" font-family="Arial, sans-serif" font-size="64" font-weight="900" fill="#FFEE00" letter-spacing="-2">
    Vertical
  </text>
  
  <text x="100" y="280" font-family="Arial, sans-serif" font-size="56" font-weight="900" fill="#FFFFFF" letter-spacing="-1">
    SaaS 2.0
  </text>
  
  <!-- Description -->
  <text x="100" y="350" font-family="Arial, sans-serif" font-size="20" font-weight="400" fill="#FFFFFF" opacity="0.8">
    Plataformas de negócio completas para nichos específicos
  </text>
  
  <!-- Category Badge -->
  <rect x="100" y="400" width="120" height="30" fill="#58B573"/>
  <text x="160" y="420" font-family="Arial, sans-serif" font-size="12" font-weight="900" fill="#050505" text-anchor="middle">
    SAAS
  </text>
  
  <!-- Bottom Accent -->
  <rect x="100" y="480" width="150" height="3" fill="#FFEE00"/>
  
  <!-- Intelligence Hub Brand -->
  <text x="100" y="520" font-family="Arial, sans-serif" font-size="14" font-weight="400" fill="#FFFFFF" opacity="0.6">
    Intelligence Hub | Strategic Reports
  </text>
  
  <!-- Vertical Icon -->
  <g transform="translate(900, 200)">
    <rect x="50" y="50" width="100" height="150" fill="none" stroke="#58B573" stroke-width="3"/>
    <rect x="70" y="70" width="60" height="40" fill="#FFEE00" opacity="0.8"/>
    <rect x="70" y="120" width="60" height="40" fill="#58B573" opacity="0.8"/>
    <rect x="70" y="170" width="60" height="20" fill="#FFFFFF" opacity="0.6"/>
  </g>
  
  <!-- Corner Accent -->
  <path d="M 1100 50 L 1150 50 L 1150 100 Z" fill="#FFEE00" opacity="0.8"/>
</svg>
