<svg width="1200" height="630" viewBox="0 0 1200 630" xmlns="http://www.w3.org/2000/svg">
  <defs>
    <linearGradient id="bg" x1="0%" y1="0%" x2="100%" y2="100%">
      <stop offset="0%" style="stop-color:#050505"/>
      <stop offset="100%" style="stop-color:#1A1A1A"/>
    </linearGradient>
  </defs>
  
  <!-- Background -->
  <rect width="1200" height="630" fill="url(#bg)"/>
  
  <!-- Growth Pattern -->
  <g opacity="0.15">
    <path d="M 200 400 Q 300 350, 400 300 T 600 200 T 800 100" stroke="#58B573" stroke-width="3" fill="none"/>
    <circle cx="200" cy="400" r="5" fill="#FFEE00"/>
    <circle cx="400" cy="300" r="8" fill="#FFEE00"/>
    <circle cx="600" cy="200" r="12" fill="#FFEE00"/>
    <circle cx="800" cy="100" r="16" fill="#FFEE00"/>
  </g>
  
  <!-- Report ID -->
  <text x="100" y="80" font-family="Arial, sans-serif" font-size="16" font-weight="900" fill="#58B573" letter-spacing="4">
    REPORT S.4
  </text>
  
  <!-- Main Title -->
  <text x="100" y="200" font-family="Arial, sans-serif" font-size="64" font-weight="900" fill="#FFEE00" letter-spacing="-2">
    PLG 2.0
  </text>
  
  <text x="100" y="280" font-family="Arial, sans-serif" font-size="56" font-weight="900" fill="#FFFFFF" letter-spacing="-1">
    Growth Evolution
  </text>
  
  <!-- Description -->
  <text x="100" y="350" font-family="Arial, sans-serif" font-size="20" font-weight="400" fill="#FFFFFF" opacity="0.8">
    A fusão de Product-Led Growth com Sales-Led Expansion
  </text>
  
  <!-- Category Badge -->
  <rect x="100" y="400" width="120" height="30" fill="#58B573"/>
  <text x="160" y="420" font-family="Arial, sans-serif" font-size="12" font-weight="900" fill="#050505" text-anchor="middle">
    SAAS
  </text>
  
  <!-- Bottom Accent -->
  <rect x="100" y="480" width="150" height="3" fill="#FFEE00"/>
  
  <!-- Intelligence Hub Brand -->
  <text x="100" y="520" font-family="Arial, sans-serif" font-size="14" font-weight="400" fill="#FFFFFF" opacity="0.6">
    Intelligence Hub | Strategic Reports
  </text>
  
  <!-- Growth Icon -->
  <g transform="translate(900, 200)">
    <path d="M 50 150 L 100 100 L 150 150" stroke="#58B573" stroke-width="4" fill="none"/>
    <path d="M 70 130 L 100 100 L 130 130" stroke="#FFEE00" stroke-width="3" fill="none"/>
    <circle cx="100" cy="100" r="8" fill="#FFFFFF"/>
    <path d="M 60 160 L 140 160" stroke="#FFFFFF" stroke-width="2"/>
    <path d="M 70 170 L 130 170" stroke="#FFFFFF" stroke-width="1"/>
  </g>
  
  <!-- Corner Accent -->
  <path d="M 1100 50 L 1150 50 L 1150 100 Z" fill="#FFEE00" opacity="0.8"/>
</svg>
