<svg width="1200" height="630" viewBox="0 0 1200 630" xmlns="http://www.w3.org/2000/svg">
  <defs>
    <linearGradient id="bg" x1="0%" y1="0%" x2="100%" y2="100%">
      <stop offset="0%" style="stop-color:#050505"/>
      <stop offset="100%" style="stop-color:#1A1A1A"/>
    </linearGradient>
  </defs>
  
  <!-- Background -->
  <rect width="1200" height="630" fill="url(#bg)"/>
  
  <!-- Security Pattern -->
  <g opacity="0.15">
    <rect x="200" y="100" width="200" height="150" fill="none" stroke="#58B573" stroke-width="2"/>
    <rect x="220" y="120" width="160" height="110" fill="none" stroke="#FFEE00" stroke-width="1"/>
    <path d="M 250 150 L 250 200 L 350 200 L 350 150 Z" fill="#58B573" opacity="0.5"/>
    <circle cx="300" cy="175" r="15" fill="none" stroke="#FFFFFF" stroke-width="2"/>
    <path d="M 300 160 L 300 190 M 285 175 L 315 175" stroke="#FFFFFF" stroke-width="2"/>
  </g>
  
  <!-- Report ID -->
  <text x="100" y="80" font-family="Arial, sans-serif" font-size="16" font-weight="900" fill="#58B573" letter-spacing="4">
    REPORT S.5
  </text>
  
  <!-- Main Title -->
  <text x="100" y="200" font-family="Arial, sans-serif" font-size="64" font-weight="900" fill="#FFEE00" letter-spacing="-2">
    Security &amp;
  </text>
  
  <text x="100" y="280" font-family="Arial, sans-serif" font-size="56" font-weight="900" fill="#FFFFFF" letter-spacing="-1">
    Compliance na Era IA
  </text>
  
  <!-- Description -->
  <text x="100" y="350" font-family="Arial, sans-serif" font-size="20" font-weight="400" fill="#FFFFFF" opacity="0.8">
    Privacidade, regulamentação e IA responsável como diferencial competitivo
  </text>
  
  <!-- Category Badge -->
  <rect x="100" y="400" width="120" height="30" fill="#58B573"/>
  <text x="160" y="420" font-family="Arial, sans-serif" font-size="12" font-weight="900" fill="#050505" text-anchor="middle">
    SAAS
  </text>
  
  <!-- Bottom Accent -->
  <rect x="100" y="480" width="150" height="3" fill="#FFEE00"/>
  
  <!-- Intelligence Hub Brand -->
  <text x="100" y="520" font-family="Arial, sans-serif" font-size="14" font-weight="400" fill="#FFFFFF" opacity="0.6">
    Intelligence Hub | Strategic Reports
  </text>
  
  <!-- Security Icon -->
  <g transform="translate(900, 200)">
    <rect x="50" y="50" width="100" height="120" fill="none" stroke="#58B573" stroke-width="3"/>
    <path d="M 50 50 L 100 30 L 150 50" stroke="#FFEE00" stroke-width="3" fill="none"/>
    <circle cx="100" cy="90" r="15" fill="none" stroke="#FFFFFF" stroke-width="2"/>
    <path d="M 100 75 L 100 105 M 85 90 L 115 90" stroke="#FFFFFF" stroke-width="2"/>
    <rect x="70" y="130" width="60" height="30" fill="#58B573" opacity="0.3"/>
  </g>
  
  <!-- Corner Accent -->
  <path d="M 1100 50 L 1150 50 L 1150 100 Z" fill="#FFEE00" opacity="0.8"/>
</svg>
