<svg width="1200" height="630" viewBox="0 0 1200 630" xmlns="http://www.w3.org/2000/svg">
  <defs>
    <linearGradient id="bg" x1="0%" y1="0%" x2="100%" y2="100%">
      <stop offset="0%" style="stop-color:#050505"/>
      <stop offset="100%" style="stop-color:#1A1A1A"/>
    </linearGradient>
  </defs>
  
  <!-- Background -->
  <rect width="1200" height="630" fill="url(#bg)"/>
  
  <!-- Map Pattern -->
  <g opacity="0.15">
    <!-- Brazil simplified shape -->
    <path d="M 300 200 L 400 180 L 500 190 L 600 210 L 650 250 L 620 300 L 550 320 L 450 310 L 350 280 Z" 
          fill="none" stroke="#58B573" stroke-width="2"/>
    <circle cx="400" cy="250" r="5" fill="#FFEE00"/>
    <circle cx="500" cy="260" r="5" fill="#FFEE00"/>
    <circle cx="550" cy="280" r="5" fill="#FFEE00"/>
    <circle cx="450" cy="270" r="5" fill="#FFEE00"/>
  </g>
  
  <!-- Report ID -->
  <text x="100" y="80" font-family="Arial, sans-serif" font-size="16" font-weight="900" fill="#58B573" letter-spacing="4">
    REPORT S.6
  </text>
  
  <!-- Main Title -->
  <text x="100" y="200" font-family="Arial, sans-serif" font-size="64" font-weight="900" fill="#FFEE00" letter-spacing="-2">
    Oportunidades
  </text>
  
  <text x="100" y="280" font-family="Arial, sans-serif" font-size="56" font-weight="900" fill="#FFFFFF" letter-spacing="-1">
    SaaS na América Latina
  </text>
  
  <!-- Description -->
  <text x="100" y="350" font-family="Arial, sans-serif" font-size="20" font-weight="400" fill="#FFFFFF" opacity="0.8">
    Mercados emergentes como catalisador de inovação SaaS
  </text>
  
  <!-- Category Badge -->
  <rect x="100" y="400" width="120" height="30" fill="#58B573"/>
  <text x="160" y="420" font-family="Arial, sans-serif" font-size="12" font-weight="900" fill="#050505" text-anchor="middle">
    SAAS
  </text>
  
  <!-- Bottom Accent -->
  <rect x="100" y="480" width="150" height="3" fill="#FFEE00"/>
  
  <!-- Intelligence Hub Brand -->
  <text x="100" y="520" font-family="Arial, sans-serif" font-size="14" font-weight="400" fill="#FFFFFF" opacity="0.6">
    Intelligence Hub | Strategic Reports
  </text>
  
  <!-- Map Icon -->
  <g transform="translate(900, 200)">
    <circle cx="100" cy="100" r="80" fill="none" stroke="#58B573" stroke-width="3"/>
    <path d="M 60 80 L 80 70 L 100 80 L 120 70 L 140 80 L 140 120 L 100 140 L 60 120 Z" 
          fill="none" stroke="#FFEE00" stroke-width="2"/>
    <circle cx="100" cy="100" r="5" fill="#FFFFFF"/>
    <circle cx="80" cy="90" r="3" fill="#FFEE00"/>
    <circle cx="120" cy="110" r="3" fill="#FFEE00"/>
  </g>
  
  <!-- Corner Accent -->
  <path d="M 1100 50 L 1150 50 L 1150 100 Z" fill="#FFEE00" opacity="0.8"/>
</svg>
